<svg xmlns="http://www.w3.org/2000/svg" width="26" height="26.034" viewBox="0 0 26 26.034">
  <path id="Icon_Cog" data-name="Icon Cog" d="M88.434,74.336H87.4a1.584,1.584,0,0,1-1.545-1.586,1.483,1.483,0,0,1,.508-1.118l.664-.651a1.665,1.665,0,0,0,0-2.365l-1.511-1.5a1.72,1.72,0,0,0-2.372,0l-.637.637a1.531,1.531,0,0,1-1.152.522,1.585,1.585,0,0,1-1.593-1.539V65.7A1.694,1.694,0,0,0,78.1,64h-2.06a1.684,1.684,0,0,0-1.654,1.7v1.03A1.585,1.585,0,0,1,72.8,68.27a1.515,1.515,0,0,1-1.125-.5l-.657-.651a1.67,1.67,0,0,0-1.186-.474,1.711,1.711,0,0,0-1.186.474l-1.525,1.491a1.669,1.669,0,0,0,0,2.359l.637.637a1.534,1.534,0,0,1,.529,1.145,1.58,1.58,0,0,1-1.545,1.586h-1.03A1.68,1.68,0,0,0,64,75.983v2.06a1.684,1.684,0,0,0,1.708,1.647h1.03a1.584,1.584,0,0,1,1.545,1.586,1.534,1.534,0,0,1-.529,1.145l-.637.63a1.669,1.669,0,0,0,0,2.359l1.511,1.5a1.67,1.67,0,0,0,1.186.474A1.711,1.711,0,0,0,71,86.916l.657-.651a1.5,1.5,0,0,1,1.125-.5A1.585,1.585,0,0,1,74.377,87.3v1.03a1.69,1.69,0,0,0,1.661,1.7H78.1a1.684,1.684,0,0,0,1.654-1.7V87.3A1.574,1.574,0,0,1,82.5,86.286l.637.637a1.72,1.72,0,0,0,2.372,0l1.511-1.5a1.677,1.677,0,0,0,0-2.365l-.664-.651a1.494,1.494,0,0,1-.508-1.118A1.58,1.58,0,0,1,87.39,79.7h1.03A1.576,1.576,0,0,0,90,78.05V75.983A1.557,1.557,0,0,0,88.434,74.336ZM82.49,77.013h0a5.422,5.422,0,0,1-10.845,0h0a5.422,5.422,0,0,1,10.845,0Z" transform="translate(-64 -64)" fill="#fff"/>
</svg>
